<?xml version="1.0" encoding="UTF-8" standalone="no"?>
<!-- Created with Inkscape (http://www.inkscape.org/) -->

<svg
   xmlns:dc="http://purl.org/dc/elements/1.1/"
   xmlns:cc="http://creativecommons.org/ns#"
   xmlns:rdf="http://www.w3.org/1999/02/22-rdf-syntax-ns#"
   xmlns:svg="http://www.w3.org/2000/svg"
   xmlns="http://www.w3.org/2000/svg"
   xmlns:sodipodi="http://sodipodi.sourceforge.net/DTD/sodipodi-0.dtd"
   xmlns:inkscape="http://www.inkscape.org/namespaces/inkscape"
   width="210mm"
   height="297mm"
   viewBox="0 0 210 297"
   version="1.1"
   id="svg9478"
   inkscape:version="0.92.5 (2060ec1f9f, 2020-04-08)"
   sodipodi:docname="logo_large.svg">
  <defs
     id="defs9472" />
  <sodipodi:namedview
     id="base"
     pagecolor="#ffffff"
     bordercolor="#666666"
     borderopacity="1.0"
     inkscape:pageopacity="0.0"
     inkscape:pageshadow="2"
     inkscape:zoom="0.98994949"
     inkscape:cx="643.1056"
     inkscape:cy="644.86127"
     inkscape:document-units="mm"
     inkscape:current-layer="layer1"
     showgrid="false"
     inkscape:window-width="1920"
     inkscape:window-height="1044"
     inkscape:window-x="0"
     inkscape:window-y="0"
     inkscape:window-maximized="1" />
  <metadata
     id="metadata9475">
    <rdf:RDF>
      <cc:Work
         rdf:about="">
        <dc:format>image/svg+xml</dc:format>
        <dc:type
           rdf:resource="http://purl.org/dc/dcmitype/StillImage" />
        <dc:title></dc:title>
      </cc:Work>
    </rdf:RDF>
  </metadata>
  <g
     inkscape:label="1. réteg"
     inkscape:groupmode="layer"
     id="layer1">
    <g
       transform="matrix(0.95193416,0,0,0.95193416,84.429139,101.17477)"
       id="g1224">
      <g
         aria-label="Online"
         style="font-style:normal;font-variant:normal;font-weight:normal;font-stretch:normal;font-size:10.58329964px;line-height:1.25;font-family:Ubuntu;-inkscape-font-specification:Ubuntu;letter-spacing:0px;word-spacing:0px;fill:#000000;fill-opacity:1;stroke:none;stroke-width:0.26458299"
         id="g1160"
         transform="translate(-1.937128)">
        <path
           d="m 62.818194,10.596373 q -0.377238,1.875854 -1.281576,2.883545 -0.904337,1.00769 -2.211751,1.00769 -1.312581,0 -1.813843,-1.002522 -0.501261,-1.007691 -0.124023,-2.899048 0.377238,-1.8758547 1.276408,-2.8732098 0.904337,-1.0025228 2.227254,-1.0025228 1.307414,0 1.803507,1.0076904 0.496094,1.0025228 0.124024,2.8783772 z m -3.994588,0 q -0.258382,1.291911 -0.07235,1.968872 0.191203,0.676961 0.821655,0.676961 1.27124,0 1.803507,-2.645833 0.5271,-2.6458332 -0.733805,-2.6458332 -0.640788,0 -1.100708,0.6769612 -0.45992,0.6717936 -0.718302,1.968872 z"
           style="font-style:italic;font-variant:normal;font-weight:normal;font-stretch:normal;font-family:'Open Sans Condensed';-inkscape-font-specification:'Open Sans Condensed, Italic';letter-spacing:0.39687499px;fill:#ff6600;fill-opacity:1;stroke-width:0.26458299"
           id="path1148"
           inkscape:connector-curvature="0" />
        <path
           d="m 64.6155,14.384255 0.343648,-1.715657 q 0.06201,-0.312642 0.01809,-0.472839 -0.04134,-0.160197 -0.209289,-0.160197 -0.222209,0 -0.369487,0.222208 -0.147278,0.219625 -0.253214,0.744141 l -0.276469,1.382344 h -0.687297 l 0.576192,-2.878377 h 0.545187 l 0.0078,0.369487 h 0.04393 q 0.134359,-0.198955 0.328145,-0.310059 0.196371,-0.113688 0.428915,-0.113688 0.392741,0 0.532267,0.268717 0.14211,0.268718 0.03876,0.785482 l -0.374654,1.878438 z"
           style="font-style:italic;font-variant:normal;font-weight:normal;font-stretch:normal;font-size:5.29166985px;font-family:'Open Sans Condensed';-inkscape-font-specification:'Open Sans Condensed, Italic';letter-spacing:0.39687499px;fill:#4d4d4d"
           id="path1150"
           inkscape:connector-curvature="0" />
        <path
           d="m 66.947658,14.384255 h -0.687297 l 0.803569,-4.020426 h 0.687296 z"
           style="font-style:italic;font-variant:normal;font-weight:normal;font-stretch:normal;font-size:5.29166985px;font-family:'Open Sans Condensed';-inkscape-font-specification:'Open Sans Condensed, Italic';letter-spacing:0.39687499px;fill:#4d4d4d"
           id="path1152"
           inkscape:connector-curvature="0" />
        <path
           d="m 68.613189,14.384255 h -0.687297 l 0.576192,-2.878377 h 0.687297 z m 0.01033,-3.630269 q 0.03359,-0.170532 0.152445,-0.268717 0.12144,-0.100769 0.299724,-0.100769 0.167948,0 0.248047,0.100769 0.0801,0.09818 0.04651,0.268717 -0.03617,0.1757 -0.160197,0.273885 -0.121439,0.0956 -0.28422,0.0956 -0.170532,0 -0.255798,-0.0956 -0.08268,-0.09818 -0.04651,-0.273885 z"
           style="font-style:italic;font-variant:normal;font-weight:normal;font-stretch:normal;font-size:5.29166985px;font-family:'Open Sans Condensed';-inkscape-font-specification:'Open Sans Condensed, Italic';letter-spacing:0.39687499px;fill:#4d4d4d"
           id="path1154"
           inkscape:connector-curvature="0" />
        <path
           d="m 71.033196,14.384255 0.343648,-1.715657 q 0.06201,-0.312642 0.01809,-0.472839 -0.04134,-0.160197 -0.209289,-0.160197 -0.222209,0 -0.369487,0.222208 -0.147278,0.219625 -0.253214,0.744141 l -0.276469,1.382344 h -0.687297 l 0.576192,-2.878377 h 0.545187 l 0.0078,0.369487 h 0.04392 q 0.134359,-0.198955 0.328145,-0.310059 0.196371,-0.113688 0.428915,-0.113688 0.392741,0 0.532267,0.268717 0.14211,0.268718 0.03876,0.785482 l -0.374654,1.878438 z"
           style="font-style:italic;font-variant:normal;font-weight:normal;font-stretch:normal;font-size:5.29166985px;font-family:'Open Sans Condensed';-inkscape-font-specification:'Open Sans Condensed, Italic';letter-spacing:0.39687499px;fill:#4d4d4d"
           id="path1156"
           inkscape:connector-curvature="0" />
        <path
           d="m 73.729673,14.435932 q -0.540019,0 -0.775147,-0.382406 -0.235128,-0.384989 -0.09302,-1.087789 0.14211,-0.713134 0.503845,-1.113627 0.361735,-0.400492 0.86558,-0.400492 0.470256,0 0.671794,0.343648 0.204122,0.341065 0.0801,0.958598 l -0.07235,0.366903 h -1.382344 q -0.06976,0.384989 0.04134,0.573608 0.113688,0.186035 0.377238,0.186035 0.335897,0 0.728637,-0.209289 l -0.113688,0.565857 q -0.369486,0.198954 -0.83199,0.198954 z m 0.390157,-2.454631 q -0.147278,0 -0.273885,0.157613 -0.126608,0.15503 -0.20929,0.483175 h 0.697632 q 0.05943,-0.315226 0,-0.478007 -0.05684,-0.162781 -0.214457,-0.162781 z"
           style="font-style:italic;font-variant:normal;font-weight:normal;font-stretch:normal;font-size:5.29166985px;font-family:'Open Sans Condensed';-inkscape-font-specification:'Open Sans Condensed, Italic';letter-spacing:0.39687499px;fill:#4d4d4d"
           id="path1158"
           inkscape:connector-curvature="0" />
      </g>
      <g
         aria-label="Pszichológiai"
         style="font-style:normal;font-variant:normal;font-weight:normal;font-stretch:normal;font-size:10.58329964px;line-height:1.25;font-family:Ubuntu;-inkscape-font-specification:Ubuntu;letter-spacing:0px;word-spacing:0px;fill:#000000;fill-opacity:1;stroke:none;stroke-width:0.26458299"
         id="g1188"
         transform="translate(-0.66145833)">
        <path
           d="m 55.771957,15.59078 q -0.237711,1.204061 -0.976684,1.850016 -0.733806,0.640788 -1.881022,0.640788 h -0.3514 l -0.54777,2.738851 h -1.405599 l 1.508952,-7.555095 h 1.917195 q 2.201416,0 1.736328,2.32544 z m -2.966227,1.27124 h 0.268718 q 0.516764,0 0.826822,-0.28422 0.310059,-0.284221 0.43925,-0.930176 0.118856,-0.594279 -0.05684,-0.878499 -0.1757,-0.289388 -0.661458,-0.289388 h -0.341065 z"
           style="font-style:italic;font-variant:normal;font-weight:normal;font-stretch:normal;font-family:'Open Sans Condensed';-inkscape-font-specification:'Open Sans Condensed, Italic';letter-spacing:0.39687499px;fill:#00d400;fill-opacity:1;stroke-width:0.26458299"
           id="path1162"
           inkscape:connector-curvature="0" />
        <path
           d="m 57.414234,19.978109 q -0.08268,0.421163 -0.377238,0.658874 -0.294555,0.235128 -0.775146,0.235128 -0.426331,0 -0.671794,-0.167948 L 55.708912,20.1073 q 0.124023,0.09819 0.299723,0.162781 0.178284,0.0646 0.322978,0.0646 0.160197,0 0.258382,-0.07752 0.100769,-0.0801 0.126607,-0.209289 0.02584,-0.131775 -0.04393,-0.22996 -0.06718,-0.09819 -0.273885,-0.240296 -0.273885,-0.186035 -0.369486,-0.395324 -0.09302,-0.211874 -0.03617,-0.498678 0.07493,-0.366902 0.369487,-0.58136 0.294556,-0.214457 0.733805,-0.214457 0.382406,0 0.679545,0.201538 l -0.322977,0.49351 q -0.245463,-0.149862 -0.454753,-0.149862 -0.131775,0 -0.211873,0.06976 -0.0801,0.06976 -0.100769,0.170532 -0.02325,0.116272 0.03876,0.206706 0.0646,0.09043 0.260966,0.224792 0.235128,0.162781 0.320394,0.276469 0.08785,0.113688 0.116272,0.258382 0.03101,0.144694 -0.0078,0.338481 z"
           style="font-style:italic;font-variant:normal;font-weight:normal;font-stretch:normal;font-size:5.29166985px;font-family:'Open Sans Condensed';-inkscape-font-specification:'Open Sans Condensed, Italic';letter-spacing:0.39687499px;fill:#4d4d4d"
           id="path1164"
           inkscape:connector-curvature="0" />
        <path
           d="m 59.568108,20.820435 h -1.6769 l 0.08785,-0.43925 1.260905,-1.883606 H 58.41314 l 0.111104,-0.555522 h 1.583883 l -0.09819,0.485759 -1.224732,1.837097 h 0.894002 z"
           style="font-style:italic;font-variant:normal;font-weight:normal;font-stretch:normal;font-size:5.29166985px;font-family:'Open Sans Condensed';-inkscape-font-specification:'Open Sans Condensed, Italic';letter-spacing:0.39687499px;fill:#4d4d4d"
           id="path1166"
           inkscape:connector-curvature="0" />
        <path
           d="m 61.055356,20.820435 h -0.687297 l 0.576193,-2.878378 h 0.687296 z m 0.01033,-3.63027 q 0.03359,-0.170532 0.152446,-0.268717 0.121439,-0.100769 0.299723,-0.100769 0.167948,0 0.248047,0.100769 0.0801,0.09818 0.04651,0.268717 -0.03617,0.1757 -0.160197,0.273885 -0.12144,0.0956 -0.284221,0.0956 -0.170532,0 -0.255798,-0.0956 -0.08268,-0.09819 -0.04651,-0.273885 z"
           style="font-style:italic;font-variant:normal;font-weight:normal;font-stretch:normal;font-size:5.29166985px;font-family:'Open Sans Condensed';-inkscape-font-specification:'Open Sans Condensed, Italic';letter-spacing:0.39687499px;fill:#4d4d4d"
           id="path1168"
           inkscape:connector-curvature="0" />
        <path
           d="m 62.981853,20.872111 q -0.51418,0 -0.707967,-0.374654 -0.193786,-0.374654 -0.04909,-1.100708 0.152445,-0.759644 0.480591,-1.134298 0.330729,-0.374654 0.862996,-0.374654 0.160197,0 0.325561,0.04651 0.167949,0.04651 0.289388,0.134359 l -0.302307,0.534851 q -0.191202,-0.126608 -0.356567,-0.126608 -0.219625,0 -0.361735,0.229961 -0.14211,0.227376 -0.232544,0.684712 -0.09043,0.447001 -0.03876,0.66921 0.05168,0.219625 0.268717,0.219625 0.258382,0 0.576192,-0.180868 l -0.121439,0.604615 q -0.304891,0.167948 -0.633037,0.167948 z"
           style="font-style:italic;font-variant:normal;font-weight:normal;font-stretch:normal;font-size:5.29166985px;font-family:'Open Sans Condensed';-inkscape-font-specification:'Open Sans Condensed, Italic';letter-spacing:0.39687499px;fill:#4d4d4d"
           id="path1170"
           inkscape:connector-curvature="0" />
        <path
           d="m 65.835942,20.820435 0.343648,-1.715658 q 0.126607,-0.633036 -0.191203,-0.633036 -0.237711,0 -0.384989,0.25063 -0.144694,0.248047 -0.237712,0.715719 l -0.276469,1.382345 h -0.687296 l 0.803568,-4.020427 h 0.687297 l -0.178284,0.894003 q -0.03359,0.173116 -0.155029,0.617533 h 0.03617 q 0.291972,-0.423747 0.720887,-0.423747 0.395324,0 0.542602,0.268718 0.149862,0.266133 0.04393,0.785481 l -0.374654,1.878439 z"
           style="font-style:italic;font-variant:normal;font-weight:normal;font-stretch:normal;font-size:5.29166985px;font-family:'Open Sans Condensed';-inkscape-font-specification:'Open Sans Condensed, Italic';letter-spacing:0.39687499px;fill:#4d4d4d"
           id="path1172"
           inkscape:connector-curvature="0" />
        <path
           d="m 69.901844,19.376078 q -0.14211,0.707967 -0.521932,1.103292 -0.377238,0.392741 -0.89917,0.392741 -0.330729,0 -0.54777,-0.180868 -0.217041,-0.180867 -0.286804,-0.519348 -0.06718,-0.341064 0.02325,-0.795817 0.139526,-0.700215 0.514181,-1.092956 0.377238,-0.395325 0.904337,-0.395325 0.509013,0 0.728638,0.403076 0.222208,0.400493 0.08527,1.085205 z m -1.529622,0 q -0.09043,0.449585 -0.03876,0.679545 0.05168,0.229961 0.268718,0.229961 0.413411,0 0.596862,-0.909506 0.09043,-0.452168 0.03359,-0.674377 -0.05426,-0.224793 -0.268717,-0.224793 -0.217041,0 -0.359151,0.224793 -0.142111,0.222209 -0.232544,0.674377 z"
           style="font-style:italic;font-variant:normal;font-weight:normal;font-stretch:normal;font-size:5.29166985px;font-family:'Open Sans Condensed';-inkscape-font-specification:'Open Sans Condensed, Italic';letter-spacing:0.39687499px;fill:#4d4d4d"
           id="path1174"
           inkscape:connector-curvature="0" />
        <path
           d="m 71.179801,20.820435 h -0.687296 l 0.803568,-4.020427 h 0.687297 z"
           style="font-style:italic;font-variant:normal;font-weight:normal;font-stretch:normal;font-size:5.29166985px;font-family:'Open Sans Condensed';-inkscape-font-specification:'Open Sans Condensed, Italic';letter-spacing:0.39687499px;fill:#4d4d4d"
           id="path1176"
           inkscape:connector-curvature="0" />
        <path
           d="m 74.57391,19.376078 q -0.142111,0.707967 -0.521932,1.103292 -0.377238,0.392741 -0.89917,0.392741 -0.330729,0 -0.54777,-0.180868 -0.217041,-0.180867 -0.286805,-0.519348 -0.06718,-0.341064 0.02325,-0.795817 0.139526,-0.700215 0.51418,-1.092956 0.377238,-0.395325 0.904338,-0.395325 0.509013,0 0.728638,0.403076 0.222208,0.400493 0.08527,1.085205 z m -1.529623,0 q -0.09043,0.449585 -0.03876,0.679545 0.05168,0.229961 0.268717,0.229961 0.413412,0 0.596863,-0.909506 0.09043,-0.452168 0.03359,-0.674377 -0.05426,-0.224793 -0.268718,-0.224793 -0.217041,0 -0.359151,0.224793 -0.14211,0.222209 -0.232544,0.674377 z m 0.403076,-1.762166 0.0155,-0.06976 q 0.131775,-0.136943 0.320394,-0.390157 0.191203,-0.253215 0.279053,-0.387573 h 0.821655 l -0.01033,0.05426 q -0.08527,0.111104 -0.379822,0.359151 -0.294555,0.245463 -0.563273,0.434082 z"
           style="font-style:italic;font-variant:normal;font-weight:normal;font-stretch:normal;font-size:5.29166985px;font-family:'Open Sans Condensed';-inkscape-font-specification:'Open Sans Condensed, Italic';letter-spacing:0.39687499px;fill:#4d4d4d"
           id="path1178"
           inkscape:connector-curvature="0" />
        <path
           d="m 77.810406,17.947225 -0.0801,0.403076 -0.359151,0.07751 q 0.0646,0.180867 0.01033,0.454752 -0.09043,0.457337 -0.390157,0.715719 -0.299723,0.258382 -0.74414,0.258382 -0.129191,0 -0.188619,-0.02067 -0.05684,0.04392 -0.113689,0.09818 -0.05426,0.05426 -0.06976,0.134359 -0.03617,0.180867 0.276469,0.180867 h 0.415995 q 0.366903,0 0.524516,0.198954 0.160197,0.196371 0.0801,0.594279 -0.100769,0.501262 -0.490926,0.775147 -0.390157,0.273885 -1.02061,0.273885 -0.478007,0 -0.695048,-0.20929 -0.217041,-0.206706 -0.139526,-0.591695 0.04651,-0.240295 0.22996,-0.423747 0.183451,-0.180867 0.462504,-0.263549 -0.12144,-0.05168 -0.183451,-0.160197 -0.06201,-0.108521 -0.03359,-0.253215 0.01809,-0.08785 0.05684,-0.157613 0.04134,-0.07235 0.100769,-0.134359 0.05943,-0.0646 0.232544,-0.188619 -0.157613,-0.10852 -0.217041,-0.333313 -0.05684,-0.224792 -0.0026,-0.498677 0.0956,-0.47284 0.395325,-0.731222 0.299723,-0.258382 0.762227,-0.258382 0.08785,0 0.196371,0.02067 0.111104,0.01809 0.165364,0.03876 z m -2.348694,3.291789 q -0.03617,0.170532 0.05168,0.260966 0.09043,0.09302 0.289388,0.09302 0.312643,0 0.49351,-0.118856 0.180868,-0.118855 0.222209,-0.325561 0.03101,-0.162781 -0.03876,-0.22996 -0.06976,-0.06718 -0.299724,-0.06718 h -0.333313 q -0.139526,0 -0.245463,0.103353 -0.105936,0.105937 -0.139526,0.284221 z m 0.682129,-2.356446 q -0.100769,0.509013 0.186035,0.509013 0.279053,0 0.379822,-0.51418 0.105936,-0.5271 -0.173116,-0.5271 -0.286805,0 -0.392741,0.532267 z"
           style="font-style:italic;font-variant:normal;font-weight:normal;font-stretch:normal;font-size:5.29166985px;font-family:'Open Sans Condensed';-inkscape-font-specification:'Open Sans Condensed, Italic';letter-spacing:0.39687499px;fill:#4d4d4d"
           id="path1180"
           inkscape:connector-curvature="0" />
        <path
           d="m 78.672367,20.820435 h -0.687296 l 0.576192,-2.878378 h 0.687296 z m 0.01034,-3.63027 q 0.03359,-0.170532 0.152446,-0.268717 0.121439,-0.100769 0.299723,-0.100769 0.167949,0 0.248047,0.100769 0.0801,0.09818 0.04651,0.268717 -0.03617,0.1757 -0.160197,0.273885 -0.12144,0.0956 -0.284221,0.0956 -0.170532,0 -0.255798,-0.0956 -0.08268,-0.09819 -0.04651,-0.273885 z"
           style="font-style:italic;font-variant:normal;font-weight:normal;font-stretch:normal;font-size:5.29166985px;font-family:'Open Sans Condensed';-inkscape-font-specification:'Open Sans Condensed, Italic';letter-spacing:0.39687499px;fill:#4d4d4d"
           id="path1182"
           inkscape:connector-curvature="0" />
        <path
           d="m 81.069121,20.820435 -0.05943,-0.392741 h -0.0155 q -0.201538,0.253214 -0.384989,0.348816 -0.180868,0.0956 -0.428915,0.0956 -0.31781,0 -0.452168,-0.237712 -0.134359,-0.237711 -0.04909,-0.661458 0.09043,-0.454752 0.382406,-0.674377 0.294555,-0.222209 0.795817,-0.245463 l 0.384989,-0.0155 0.04134,-0.206706 q 0.0801,-0.403076 -0.268717,-0.403076 -0.258382,0 -0.633037,0.201538 L 80.23713,18.153931 q 0.483175,-0.271302 0.98702,-0.271302 0.457337,0 0.643372,0.26355 0.188619,0.260966 0.09302,0.741557 l -0.387573,1.932699 z m -0.498678,-0.485759 q 0.188619,0 0.333313,-0.167948 0.147278,-0.170532 0.204122,-0.452169 l 0.04651,-0.242879 -0.211873,0.01034 q -0.237712,0.01292 -0.372071,0.134359 -0.134358,0.121439 -0.183451,0.361735 -0.06976,0.356567 0.183451,0.356567 z"
           style="font-style:italic;font-variant:normal;font-weight:normal;font-stretch:normal;font-size:5.29166985px;font-family:'Open Sans Condensed';-inkscape-font-specification:'Open Sans Condensed, Italic';letter-spacing:0.39687499px;fill:#4d4d4d"
           id="path1184"
           inkscape:connector-curvature="0" />
        <path
           d="M 83.217827,20.820435 H 82.53053 l 0.576192,-2.878378 h 0.687297 z m 0.01033,-3.63027 q 0.03359,-0.170532 0.152446,-0.268717 0.121439,-0.100769 0.299723,-0.100769 0.167948,0 0.248047,0.100769 0.0801,0.09818 0.04651,0.268717 -0.03617,0.1757 -0.160197,0.273885 -0.12144,0.0956 -0.284221,0.0956 -0.170532,0 -0.255798,-0.0956 -0.08268,-0.09819 -0.04651,-0.273885 z"
           style="font-style:italic;font-variant:normal;font-weight:normal;font-stretch:normal;font-size:5.29166985px;font-family:'Open Sans Condensed';-inkscape-font-specification:'Open Sans Condensed, Italic';letter-spacing:0.39687499px;fill:#4d4d4d"
           id="path1186"
           inkscape:connector-curvature="0" />
      </g>
      <g
         aria-label="Tesztrendszer"
         style="font-style:normal;font-variant:normal;font-weight:normal;font-stretch:normal;font-size:10.58329964px;line-height:1.25;font-family:Ubuntu;-inkscape-font-specification:Ubuntu;letter-spacing:0px;word-spacing:0px;fill:#000000;fill-opacity:1;stroke:none;stroke-width:0.26458299"
         id="g1216">
        <path
           d="M 46.551831,26.784138 H 45.1514 l 1.266073,-6.320028 h -1.44694 l 0.242879,-1.235066 h 4.294311 l -0.242879,1.235066 h -1.44694 z"
           style="font-style:italic;font-variant:normal;font-weight:normal;font-stretch:normal;font-family:'Open Sans Condensed';-inkscape-font-specification:'Open Sans Condensed, Italic';letter-spacing:0.39687499px;fill:#00ccff;fill-opacity:1;stroke-width:0.26458299"
           id="path1190"
           inkscape:connector-curvature="0" />
        <path
           d="m 49.87876,26.835814 q -0.540019,0 -0.775146,-0.382405 -0.235128,-0.38499 -0.09302,-1.087789 0.14211,-0.713135 0.503845,-1.113627 0.361735,-0.400493 0.865581,-0.400493 0.470255,0 0.671793,0.343649 0.204122,0.341064 0.0801,0.958597 l -0.07235,0.366903 h -1.382345 q -0.06976,0.384989 0.04134,0.573608 0.113688,0.186036 0.377238,0.186036 0.335897,0 0.728638,-0.20929 l -0.113688,0.565857 q -0.369487,0.198954 -0.831991,0.198954 z m 0.390157,-2.45463 q -0.147278,0 -0.273885,0.157613 -0.126607,0.155029 -0.209289,0.483174 h 0.697631 q 0.05943,-0.315226 0,-0.478007 -0.05684,-0.16278 -0.214457,-0.16278 z"
           style="font-style:italic;font-variant:normal;font-weight:normal;font-stretch:normal;font-size:5.29166985px;font-family:'Open Sans Condensed';-inkscape-font-specification:'Open Sans Condensed, Italic';letter-spacing:0.39687499px;fill:#4d4d4d"
           id="path1192"
           inkscape:connector-curvature="0" />
        <path
           d="m 53.371053,25.941812 q -0.08268,0.421163 -0.377238,0.658874 -0.294555,0.235128 -0.775146,0.235128 -0.426331,0 -0.671794,-0.167948 l 0.118856,-0.596863 q 0.124024,0.09818 0.299723,0.162781 0.178284,0.0646 0.322978,0.0646 0.160197,0 0.258382,-0.07751 0.100769,-0.0801 0.126608,-0.20929 0.02584,-0.131775 -0.04393,-0.22996 -0.06718,-0.09818 -0.273886,-0.240295 -0.273885,-0.186036 -0.369486,-0.395325 -0.09302,-0.211873 -0.03617,-0.498678 0.07493,-0.366902 0.369487,-0.58136 0.294556,-0.214457 0.733805,-0.214457 0.382406,0 0.679545,0.201538 l -0.322977,0.49351 q -0.245463,-0.149861 -0.454753,-0.149861 -0.131775,0 -0.211873,0.06976 -0.0801,0.06976 -0.100769,0.170532 -0.02325,0.116272 0.03876,0.206706 0.0646,0.09043 0.260966,0.224792 0.235128,0.162781 0.320394,0.276469 0.08785,0.113688 0.116272,0.258382 0.03101,0.144694 -0.0078,0.338481 z"
           style="font-style:italic;font-variant:normal;font-weight:normal;font-stretch:normal;font-size:5.29166985px;font-family:'Open Sans Condensed';-inkscape-font-specification:'Open Sans Condensed, Italic';letter-spacing:0.39687499px;fill:#4d4d4d"
           id="path1194"
           inkscape:connector-curvature="0" />
        <path
           d="m 55.524927,26.784138 h -1.6769 l 0.08785,-0.43925 1.260905,-1.883606 h -0.826823 l 0.111104,-0.555521 h 1.583883 l -0.09819,0.485758 -1.224732,1.837097 h 0.894002 z"
           style="font-style:italic;font-variant:normal;font-weight:normal;font-stretch:normal;font-size:5.29166985px;font-family:'Open Sans Condensed';-inkscape-font-specification:'Open Sans Condensed, Italic';letter-spacing:0.39687499px;fill:#4d4d4d"
           id="path1196"
           inkscape:connector-curvature="0" />
        <path
           d="m 57.425586,26.254454 q 0.144694,0 0.328145,-0.07235 l -0.10852,0.537435 q -0.191203,0.116272 -0.5271,0.116272 -0.374654,0 -0.511596,-0.222208 -0.134359,-0.224793 -0.04651,-0.671794 l 0.299723,-1.490865 h -0.279053 l 0.05943,-0.307475 0.410828,-0.248047 0.297139,-0.609782 h 0.43925 l -0.124023,0.620118 h 0.521932 l -0.108521,0.545186 h -0.521932 l -0.304891,1.514119 q -0.05684,0.289388 0.1757,0.289388 z"
           style="font-style:italic;font-variant:normal;font-weight:normal;font-stretch:normal;font-size:5.29166985px;font-family:'Open Sans Condensed';-inkscape-font-specification:'Open Sans Condensed, Italic';letter-spacing:0.39687499px;fill:#4d4d4d"
           id="path1198"
           inkscape:connector-curvature="0" />
        <path
           d="m 60.246086,23.8515 q 0.126607,0 0.240295,0.03876 l -0.214457,0.666626 q -0.06718,-0.02584 -0.183451,-0.02584 -0.250631,0 -0.423747,0.198955 -0.173116,0.19637 -0.248047,0.573608 l -0.297139,1.48053 h -0.687297 l 0.576192,-2.878377 h 0.565857 l -0.01292,0.449584 h 0.02325 q 0.167949,-0.271301 0.325562,-0.387573 0.157613,-0.116272 0.335897,-0.116272 z"
           style="font-style:italic;font-variant:normal;font-weight:normal;font-stretch:normal;font-size:5.29166985px;font-family:'Open Sans Condensed';-inkscape-font-specification:'Open Sans Condensed, Italic';letter-spacing:0.39687499px;fill:#4d4d4d"
           id="path1200"
           inkscape:connector-curvature="0" />
        <path
           d="m 61.66357,26.835814 q -0.540019,0 -0.775147,-0.382405 -0.235127,-0.38499 -0.09302,-1.087789 0.14211,-0.713135 0.503845,-1.113627 0.361735,-0.400493 0.86558,-0.400493 0.470256,0 0.671794,0.343649 0.204122,0.341064 0.0801,0.958597 l -0.07235,0.366903 h -1.382344 q -0.06976,0.384989 0.04134,0.573608 0.113688,0.186036 0.377238,0.186036 0.335897,0 0.728637,-0.20929 L 62.49556,26.63686 q -0.369486,0.198954 -0.83199,0.198954 z m 0.390157,-2.45463 q -0.147278,0 -0.273885,0.157613 -0.126608,0.155029 -0.20929,0.483174 h 0.697632 q 0.05943,-0.315226 0,-0.478007 -0.05684,-0.16278 -0.214457,-0.16278 z"
           style="font-style:italic;font-variant:normal;font-weight:normal;font-stretch:normal;font-size:5.29166985px;font-family:'Open Sans Condensed';-inkscape-font-specification:'Open Sans Condensed, Italic';letter-spacing:0.39687499px;fill:#4d4d4d"
           id="path1202"
           inkscape:connector-curvature="0" />
        <path
           d="m 64.876811,26.784138 0.343648,-1.715658 q 0.06201,-0.312642 0.01809,-0.472839 -0.04134,-0.160197 -0.20929,-0.160197 -0.222209,0 -0.369486,0.222209 -0.147278,0.219624 -0.253215,0.74414 l -0.276469,1.382345 H 63.44279 l 0.576192,-2.878377 h 0.545186 l 0.0078,0.369486 h 0.04392 q 0.134358,-0.198954 0.328145,-0.310059 0.19637,-0.113688 0.428914,-0.113688 0.392741,0 0.532268,0.268718 0.14211,0.268717 0.03876,0.785481 l -0.374654,1.878439 z"
           style="font-style:italic;font-variant:normal;font-weight:normal;font-stretch:normal;font-size:5.29166985px;font-family:'Open Sans Condensed';-inkscape-font-specification:'Open Sans Condensed, Italic';letter-spacing:0.39687499px;fill:#4d4d4d"
           id="path1204"
           inkscape:connector-curvature="0" />
        <path
           d="m 67.268396,26.835814 q -0.397908,0 -0.550354,-0.392741 -0.149861,-0.392741 -0.01033,-1.092956 0.139526,-0.7028 0.444417,-1.100708 0.304891,-0.397909 0.700216,-0.397909 0.19637,0 0.320394,0.09818 0.124023,0.0956 0.198954,0.325562 h 0.04134 q 0.04909,-0.392741 0.0801,-0.550354 l 0.191203,-0.961182 h 0.687296 l -0.803568,4.020427 h -0.511597 l -0.04134,-0.374654 h -0.02325 q -0.304891,0.42633 -0.72347,0.42633 z m 0.338481,-0.58136 q 0.191203,0 0.312642,-0.173116 0.124024,-0.1757 0.224793,-0.63562 l 0.01809,-0.09043 q 0.09819,-0.501261 0.04909,-0.705383 -0.04651,-0.204122 -0.25063,-0.204122 -0.191203,0 -0.325562,0.235128 -0.131775,0.232544 -0.222209,0.679545 -0.08785,0.447001 -0.04651,0.671794 0.04393,0.222208 0.240295,0.222208 z"
           style="font-style:italic;font-variant:normal;font-weight:normal;font-stretch:normal;font-size:5.29166985px;font-family:'Open Sans Condensed';-inkscape-font-specification:'Open Sans Condensed, Italic';letter-spacing:0.39687499px;fill:#4d4d4d"
           id="path1206"
           inkscape:connector-curvature="0" />
        <path
           d="m 71.256783,25.941812 q -0.08268,0.421163 -0.377238,0.658874 -0.294555,0.235128 -0.775146,0.235128 -0.426331,0 -0.671794,-0.167948 l 0.118856,-0.596863 q 0.124023,0.09818 0.299723,0.162781 0.178284,0.0646 0.322978,0.0646 0.160197,0 0.258382,-0.07751 0.100769,-0.0801 0.126607,-0.20929 0.02584,-0.131775 -0.04393,-0.22996 -0.06718,-0.09818 -0.273885,-0.240295 -0.273885,-0.186036 -0.369486,-0.395325 -0.09302,-0.211873 -0.03617,-0.498678 0.07493,-0.366902 0.369487,-0.58136 0.294555,-0.214457 0.733805,-0.214457 0.382406,0 0.679545,0.201538 l -0.322978,0.49351 q -0.245463,-0.149861 -0.454752,-0.149861 -0.131775,0 -0.211874,0.06976 -0.0801,0.06976 -0.100769,0.170532 -0.02325,0.116272 0.03876,0.206706 0.06459,0.09043 0.260966,0.224792 0.235127,0.162781 0.320394,0.276469 0.08785,0.113688 0.116272,0.258382 0.03101,0.144694 -0.0078,0.338481 z"
           style="font-style:italic;font-variant:normal;font-weight:normal;font-stretch:normal;font-size:5.29166985px;font-family:'Open Sans Condensed';-inkscape-font-specification:'Open Sans Condensed, Italic';letter-spacing:0.39687499px;fill:#4d4d4d"
           id="path1208"
           inkscape:connector-curvature="0" />
        <path
           d="m 73.410656,26.784138 h -1.6769 l 0.08785,-0.43925 1.260905,-1.883606 h -0.826823 l 0.111104,-0.555521 h 1.583883 l -0.09819,0.485758 -1.224731,1.837097 h 0.894002 z"
           style="font-style:italic;font-variant:normal;font-weight:normal;font-stretch:normal;font-size:5.29166985px;font-family:'Open Sans Condensed';-inkscape-font-specification:'Open Sans Condensed, Italic';letter-spacing:0.39687499px;fill:#4d4d4d"
           id="path1210"
           inkscape:connector-curvature="0" />
        <path
           d="m 75.257057,26.835814 q -0.540019,0 -0.775147,-0.382405 -0.235128,-0.38499 -0.09302,-1.087789 0.142111,-0.713135 0.503846,-1.113627 0.361735,-0.400493 0.86558,-0.400493 0.470255,0 0.671793,0.343649 0.204122,0.341064 0.0801,0.958597 l -0.07235,0.366903 h -1.382345 q -0.06976,0.384989 0.04134,0.573608 0.113688,0.186036 0.377238,0.186036 0.335896,0 0.728637,-0.20929 l -0.113688,0.565857 q -0.369486,0.198954 -0.83199,0.198954 z m 0.390157,-2.45463 q -0.147278,0 -0.273886,0.157613 -0.126607,0.155029 -0.209289,0.483174 h 0.697632 q 0.05943,-0.315226 0,-0.478007 -0.05684,-0.16278 -0.214457,-0.16278 z"
           style="font-style:italic;font-variant:normal;font-weight:normal;font-stretch:normal;font-size:5.29166985px;font-family:'Open Sans Condensed';-inkscape-font-specification:'Open Sans Condensed, Italic';letter-spacing:0.39687499px;fill:#4d4d4d"
           id="path1212"
           inkscape:connector-curvature="0" />
        <path
           d="m 78.850119,23.8515 q 0.126607,0 0.240296,0.03876 l -0.214458,0.666626 q -0.06718,-0.02584 -0.183451,-0.02584 -0.250631,0 -0.423747,0.198955 -0.173116,0.19637 -0.248047,0.573608 l -0.297139,1.48053 h -0.687297 l 0.576193,-2.878377 h 0.565857 l -0.01292,0.449584 h 0.02325 q 0.167948,-0.271301 0.325561,-0.387573 0.157614,-0.116272 0.335897,-0.116272 z"
           style="font-style:italic;font-variant:normal;font-weight:normal;font-stretch:normal;font-size:5.29166985px;font-family:'Open Sans Condensed';-inkscape-font-specification:'Open Sans Condensed, Italic';letter-spacing:0.39687499px;fill:#4d4d4d"
           id="path1214"
           inkscape:connector-curvature="0" />
      </g>
      <rect
         style="opacity:1;fill:#bac6ca;fill-opacity:1;stroke:none;stroke-width:0.63525599;stroke-miterlimit:4;stroke-dasharray:none;stroke-opacity:1"
         id="rect1218"
         width="3.4816208"
         height="3.4816208"
         x="34.144569"
         y="29.330475"
         transform="rotate(-30)" />
      <circle
         style="opacity:1;fill:#bac6ca;fill-opacity:1;stroke:none;stroke-width:0.67717999;stroke-miterlimit:4;stroke-dasharray:none;stroke-opacity:1"
         id="circle1220"
         cx="51.91634"
         cy="8.8042116"
         r="1.9516801" />
      <path
         style="opacity:1;fill:#bac6ca;fill-opacity:1;stroke:none;stroke-width:0.72882199;stroke-miterlimit:4;stroke-dasharray:none;stroke-opacity:1"
         d="m 48.708957,12.416067 0.411864,4.446866 -3.722238,-1.449255 z"
         id="path1222"
         inkscape:connector-curvature="0"
         sodipodi:nodetypes="cccc" />
    </g>
  </g>
</svg>
